%FSLAX25Y25*%
%MOIN*%
G70*
G01*
G75*
G04 Layer_Physical_Order=1*
G04 Layer_Color=255*
%ADD10C,0.01575*%
%ADD11C,0.00600*%
%ADD12C,0.01000*%
%ADD13C,0.03937*%
%ADD14C,0.02400*%
D10*
X-7874Y-7874D02*
D03*
Y-3937D02*
D03*
Y0D02*
D03*
Y3937D02*
D03*
Y7874D02*
D03*
X-3937Y-7874D02*
D03*
Y-3937D02*
D03*
Y0D02*
D03*
Y3937D02*
D03*
Y7874D02*
D03*
X0Y-7874D02*
D03*
Y-3937D02*
D03*
Y0D02*
D03*
Y3937D02*
D03*
Y7874D02*
D03*
X3937Y-7874D02*
D03*
Y-3937D02*
D03*
Y0D02*
D03*
Y3937D02*
D03*
Y7874D02*
D03*
X7874Y-7874D02*
D03*
Y-3937D02*
D03*
Y0D02*
D03*
Y3937D02*
D03*
D11*
X2700Y10000D02*
X9700D01*
X2000Y9300D02*
X2700Y10000D01*
X2000Y2800D02*
Y9300D01*
X12800Y-2500D02*
Y7500D01*
X9676Y-5624D02*
X12800Y-2500D01*
X5624Y-5624D02*
X9676D01*
X12800Y7500D02*
X15748D01*
X-1863Y-5800D02*
X0Y-3937D01*
X-10400Y-5800D02*
X-1863D01*
X-13700Y-2500D02*
X-10400Y-5800D01*
X-15648Y-2500D02*
X-13700D01*
X-15748Y-2600D02*
X-15648Y-2500D01*
X-1800Y5737D02*
X0Y3937D01*
X-1800Y5737D02*
Y9000D01*
X-3200Y10400D02*
X-1800Y9000D01*
X-9300Y10400D02*
X-3200D01*
X-12200Y7500D02*
X-9300Y10400D01*
X-15748Y7500D02*
X-12200D01*
X-6187Y6187D02*
X-3937Y3937D01*
X-10613Y6187D02*
X-6187D01*
X-14300Y2500D02*
X-10613Y6187D01*
X-15748Y2500D02*
X-14300D01*
X-5937Y2000D02*
X-3937Y0D01*
X-9300Y2000D02*
X-5937D01*
X-10900Y400D02*
X-9300Y2000D01*
X-10900Y0D02*
Y400D01*
X-11000Y100D02*
X-10900Y0D01*
X3937Y-3937D02*
X5624Y-5624D01*
X-3937Y-3937D02*
X-2250Y-2250D01*
Y1050D01*
X-1200Y2100D01*
X1300D01*
X2000Y2800D01*
X3937Y3937D02*
X5674Y2200D01*
X8500D01*
X10500Y200D01*
D12*
X-15748Y-7600D02*
X-13700D01*
X2050Y-1887D02*
X3937Y0D01*
X-13700Y-7600D02*
X-11100Y-10200D01*
X900D01*
X2050Y-9050D01*
Y-1887D01*
D13*
X-15748Y7500D02*
D03*
Y2500D02*
D03*
Y-2600D02*
D03*
Y-7600D02*
D03*
X15748Y-7500D02*
D03*
Y-2500D02*
D03*
Y2500D02*
D03*
Y7500D02*
D03*
D14*
X-10900Y0D02*
D03*
X10500Y200D02*
D03*
X9700Y10000D02*
D03*
M02*
