%FSLAX25Y25*%
%MOIN*%
G70*
G01*
G75*
G04 Layer_Physical_Order=2*
G04 Layer_Color=16711680*
%ADD10C,0.01575*%
%ADD11C,0.00600*%
%ADD12C,0.01000*%
%ADD13C,0.03937*%
%ADD14C,0.02400*%
G04:AMPARAMS|DCode=15|XSize=43.31mil|YSize=17.32mil|CornerRadius=2.17mil|HoleSize=0mil|Usage=FLASHONLY|Rotation=0.000|XOffset=0mil|YOffset=0mil|HoleType=Round|Shape=RoundedRectangle|*
%AMROUNDEDRECTD15*
21,1,0.04331,0.01299,0,0,0.0*
21,1,0.03898,0.01732,0,0,0.0*
1,1,0.00433,0.01949,-0.00650*
1,1,0.00433,-0.01949,-0.00650*
1,1,0.00433,-0.01949,0.00650*
1,1,0.00433,0.01949,0.00650*
%
%ADD15ROUNDEDRECTD15*%
G04:AMPARAMS|DCode=16|XSize=31.5mil|YSize=17.32mil|CornerRadius=2.17mil|HoleSize=0mil|Usage=FLASHONLY|Rotation=0.000|XOffset=0mil|YOffset=0mil|HoleType=Round|Shape=RoundedRectangle|*
%AMROUNDEDRECTD16*
21,1,0.03150,0.01299,0,0,0.0*
21,1,0.02717,0.01732,0,0,0.0*
1,1,0.00433,0.01358,-0.00650*
1,1,0.00433,-0.01358,-0.00650*
1,1,0.00433,-0.01358,0.00650*
1,1,0.00433,0.01358,0.00650*
%
%ADD16ROUNDEDRECTD16*%
D11*
X-10900Y0D02*
X-9700Y-1200D01*
Y-8400D02*
Y-1200D01*
X13445Y2500D02*
X15748D01*
X10500Y200D02*
X13200Y-2500D01*
X13445D01*
X9700Y5300D02*
Y10000D01*
Y5300D02*
X12500Y2500D01*
X13445D01*
X-9700Y-8400D02*
X-7200Y-10900D01*
X9651D01*
X13051Y-7500D01*
D13*
X-15748Y7500D02*
D03*
Y2500D02*
D03*
Y-2600D02*
D03*
Y-7600D02*
D03*
X15748Y-7500D02*
D03*
Y-2500D02*
D03*
Y2500D02*
D03*
Y7500D02*
D03*
D14*
X-10900Y0D02*
D03*
X10500Y200D02*
D03*
X9700Y10000D02*
D03*
D15*
X-13051Y7500D02*
D03*
Y-7500D02*
D03*
X13051D02*
D03*
Y7500D02*
D03*
D16*
X-13445Y2500D02*
D03*
X13445Y-2500D02*
D03*
Y2500D02*
D03*
X-13445Y-2500D02*
D03*
M02*
